<?xml version="1.0" standalone="no"?>
<!DOCTYPE svg PUBLIC "-//W3C//DTD SVG 20010904//EN"
 "http://www.w3.org/TR/2001/REC-SVG-20010904/DTD/svg10.dtd">
<svg version="1.0" xmlns="http://www.w3.org/2000/svg"
 width="600.000000pt" height="600.000000pt" viewBox="0 0 600.000000 600.000000"
 preserveAspectRatio="xMidYMid meet">
<metadata>
Created by potrace 1.11, written by Peter Selinger 2001-2013
</metadata>
<g transform="translate(0.000000,600.000000) scale(0.100000,-0.100000)"
fill="#000000" stroke="none">
<path d="M2707 5994 c-2 -2 -21 -5 -43 -8 -65 -6 -138 -18 -148 -24 -5 -3 -23
-6 -40 -7 -45 -4 -103 -15 -166 -31 -30 -8 -62 -14 -72 -14 -10 0 -18 -5 -18
-12 0 -6 -3 -9 -6 -5 -3 3 -26 0 -50 -8 -24 -7 -44 -11 -44 -8 0 3 -6 0 -13
-6 -8 -6 -17 -8 -20 -4 -4 3 -7 0 -7 -7 0 -7 -3 -11 -6 -7 -3 3 -27 -2 -53
-12 -25 -11 -48 -19 -51 -19 -9 -1 -44 -14 -77 -28 -18 -8 -50 -21 -70 -30
-60 -26 -287 -137 -293 -143 -8 -9 -83 -52 -102 -58 -10 -3 -18 -9 -18 -14 0
-5 -6 -9 -13 -9 -7 0 -19 -9 -27 -19 -7 -11 -17 -18 -22 -15 -5 3 -23 -6 -41
-20 -42 -35 -46 -38 -87 -66 -19 -13 -46 -35 -60 -47 -14 -13 -28 -23 -31 -23
-3 0 -18 -11 -33 -25 -15 -14 -32 -25 -37 -25 -6 0 -7 -4 -4 -10 3 -5 1 -10
-5 -10 -7 0 -27 -16 -46 -35 -19 -20 -34 -33 -34 -31 0 8 -171 -166 -230 -234
-30 -35 -61 -69 -68 -77 -7 -7 -11 -13 -8 -13 3 0 -2 -8 -12 -18 -33 -34 -77
-95 -74 -103 1 -5 -2 -9 -7 -9 -8 0 -122 -167 -157 -230 -10 -19 -25 -43 -33
-52 -8 -10 -10 -18 -5 -18 5 0 4 -4 -2 -8 -14 -10 -106 -192 -96 -192 4 0 2
-4 -4 -8 -6 -4 -30 -54 -54 -112 -59 -145 -81 -210 -93 -274 -1 -6 -5 -13 -8
-16 -5 -4 -33 -113 -44 -170 -2 -8 -4 -15 -5 -15 -2 0 -9 -36 -13 -65 -2 -14
-6 -30 -9 -36 -4 -5 -5 -22 -4 -37 2 -15 -1 -27 -5 -27 -5 0 -9 -19 -9 -43 0
-24 -3 -47 -7 -50 -3 -4 -7 -26 -7 -49 -1 -24 -4 -47 -7 -53 -8 -13 -3 -588 5
-635 3 -19 8 -57 12 -85 7 -51 9 -67 19 -120 3 -16 7 -41 9 -55 3 -14 5 -25 7
-25 1 0 3 -11 4 -23 1 -13 7 -40 13 -60 25 -85 54 -188 57 -202 2 -8 9 -28 15
-45 6 -16 14 -39 16 -49 2 -11 7 -22 11 -25 5 -3 9 -16 11 -29 2 -12 10 -34
17 -49 8 -15 12 -30 9 -35 -3 -4 0 -8 5 -8 6 0 11 -9 11 -20 0 -11 5 -20 10
-20 6 0 10 -7 10 -15 0 -18 52 -127 65 -137 6 -4 6 -8 2 -8 -5 0 1 -14 13 -30
12 -17 19 -30 16 -30 -8 0 44 -83 56 -91 5 -3 9 -9 8 -13 -2 -11 24 -66 32
-66 5 0 8 -7 8 -15 0 -8 4 -15 9 -15 5 0 14 -14 21 -30 7 -17 16 -30 21 -30 5
0 9 -5 9 -10 0 -6 5 -16 10 -23 6 -7 34 -43 62 -82 62 -84 68 -91 90 -116 10
-10 18 -22 18 -25 0 -4 14 -20 30 -36 17 -15 30 -31 30 -33 0 -7 238 -245 244
-245 2 0 20 -15 38 -32 19 -18 49 -44 68 -58 18 -14 56 -44 84 -67 28 -23 54
-39 58 -37 5 3 8 1 8 -4 0 -10 141 -108 151 -105 4 1 15 -7 24 -17 10 -11 24
-20 32 -20 7 0 13 -5 13 -12 0 -6 3 -9 6 -6 5 5 52 -21 89 -49 6 -5 19 -10 30
-11 11 -2 22 -7 25 -11 9 -11 219 -110 235 -110 3 -1 18 -7 33 -15 44 -23 333
-116 342 -111 5 3 11 1 15 -5 4 -6 11 -8 16 -5 5 4 9 2 9 -3 0 -5 10 -8 23 -7
12 1 27 0 32 -4 13 -7 32 -11 72 -14 18 -1 33 -4 33 -7 0 -3 12 -7 28 -8 15
-1 38 -4 52 -7 48 -11 95 -17 128 -18 17 0 32 -3 32 -6 0 -3 45 -6 99 -6 54 0
98 -2 96 -5 -2 -3 64 -6 146 -5 82 0 149 2 149 5 0 3 33 5 73 5 39 -1 76 1 81
4 6 2 24 5 41 7 28 1 82 9 136 19 9 2 32 6 50 9 58 10 123 23 127 26 1 2 10 3
20 4 9 1 27 5 39 9 12 4 32 10 44 12 13 3 55 15 94 27 38 12 72 23 75 23 3 1
12 4 20 7 8 3 38 13 65 23 28 9 64 23 80 30 17 7 50 21 75 31 25 10 47 21 50
25 3 4 14 9 25 11 11 1 23 7 26 11 3 5 12 9 20 10 8 2 25 10 39 20 13 9 32 17
40 17 9 0 21 5 27 11 14 14 49 35 86 51 15 7 27 16 27 21 0 4 4 6 9 3 4 -3 16
3 26 14 10 11 22 20 27 20 8 0 198 128 208 140 3 3 34 28 70 55 36 27 78 61
95 75 45 38 308 300 302 300 -4 0 4 11 16 24 42 45 64 71 108 131 24 33 47 62
52 63 4 2 7 9 7 15 0 7 14 27 31 44 16 18 27 33 23 33 -4 0 1 9 11 20 10 11
15 20 11 20 -4 0 0 7 8 16 37 37 208 358 241 454 1 3 8 21 16 40 7 19 12 38
11 43 -1 4 3 7 8 7 5 0 9 3 8 8 0 4 2 15 5 25 17 43 20 53 24 67 2 8 5 21 5
28 1 6 6 12 11 12 6 0 8 3 4 6 -3 3 -1 18 4 33 10 24 35 114 44 152 2 9 8 34
14 55 6 21 8 40 6 43 -3 2 0 10 6 17 6 8 9 20 6 28 -3 8 -3 17 1 21 3 3 7 16
8 28 2 12 5 38 9 57 4 19 6 43 6 53 0 9 3 17 7 17 4 0 8 19 8 43 2 51 12 182
14 182 1 0 2 62 4 137 2 88 -1 135 -7 131 -6 -4 -7 -1 -1 8 12 19 11 72 -1 81
-6 5 -5 8 3 8 7 0 10 5 6 12 -4 6 -8 32 -9 57 -2 25 -6 54 -10 64 -4 11 -3 17
5 17 9 0 9 4 2 13 -5 6 -12 43 -16 81 -4 38 -9 72 -12 77 -3 5 -7 23 -9 41 -6
46 -22 133 -25 133 -3 0 -11 40 -13 65 -1 14 -5 27 -9 30 -4 3 -9 15 -11 25
-1 11 -6 26 -10 33 -5 6 -6 12 -3 12 3 0 -4 25 -14 56 -11 31 -18 60 -15 64 3
5 0 10 -5 12 -6 2 -12 10 -14 18 -6 34 -30 100 -35 100 -4 0 -7 8 -8 18 -1 10
-22 62 -47 116 -25 54 -46 102 -46 107 0 5 -5 9 -10 9 -6 0 -9 3 -8 8 2 7 -33
77 -71 142 -12 19 -29 50 -38 68 -9 17 -20 32 -25 32 -4 0 -8 5 -8 10 0 10
-78 130 -91 140 -3 3 -11 14 -17 26 -6 12 -27 41 -47 65 -20 24 -43 52 -51 62
-8 9 -14 19 -14 21 0 15 -266 286 -274 279 -3 -4 -6 1 -6 10 0 9 -3 17 -7 17
-7 0 -62 47 -130 110 -12 11 -27 20 -33 20 -5 0 -10 3 -10 8 0 4 -17 18 -38
32 -20 14 -39 27 -42 30 -14 14 -85 64 -85 60 0 -3 -7 1 -15 7 -55 46 -78 62
-84 56 -3 -3 -6 -1 -6 6 0 7 -4 9 -10 6 -5 -3 -10 -2 -10 3 0 5 -15 17 -33 25
-18 9 -49 27 -70 41 -21 14 -44 26 -51 26 -8 0 -19 7 -26 15 -7 8 -16 12 -21
9 -5 -3 -9 -1 -9 4 0 5 -10 13 -22 17 -32 10 -29 9 -77 33 -25 12 -51 22 -58
22 -7 0 -13 4 -13 9 0 7 -39 22 -55 21 -3 0 -19 7 -35 15 -17 9 -30 12 -30 8
0 -5 -4 -2 -9 5 -4 7 -14 14 -22 16 -26 4 -124 39 -135 47 -6 5 -13 7 -15 4
-3 -2 -27 3 -54 11 -28 8 -58 17 -67 20 -10 2 -28 7 -40 10 -13 3 -30 7 -38 8
-9 1 -20 5 -27 9 -6 4 -18 4 -27 1 -9 -3 -16 -2 -16 3 0 5 -15 9 -34 8 -19 0
-32 3 -29 8 2 4 -10 7 -29 7 -47 -1 -102 11 -110 24 -5 8 -8 7 -8 -2 0 -8 -5
-10 -12 -6 -7 5 -29 10 -48 12 -49 5 -628 10 -633 6z"/>
</g>
</svg>
